<svg width="38" height="38" viewBox="0 0 38 38" fill="none" xmlns="http://www.w3.org/2000/svg">
<rect width="38" height="38" rx="2" fill="#6AC431"/>
<path d="M19 21L28 16L19 11L10 16L19 21ZM19 21L25.1591 17.5783C25.7017 18.9466 26 20.4384 26 21.9999C26 22.7013 25.9398 23.3885 25.8244 24.0569C23.2143 24.3106 20.849 25.4006 19 27.0555C17.151 25.4006 14.7857 24.3106 12.1756 24.0569C12.0602 23.3885 12 22.7012 12 21.9999C12 20.4384 12.2982 18.9466 12.8409 17.5782L19 21ZM15 26.9999V19.5L19 17.2778" stroke="#E9F6E0" stroke-width="2" stroke-linecap="round" stroke-linejoin="round"/>
</svg>
