<svg width="105" height="21" viewBox="0 0 105 21" fill="none" xmlns="http://www.w3.org/2000/svg">
<path d="M9.54894 2.92705C9.8483 2.00574 11.1517 2.00574 11.4511 2.92705L12.6329 6.56434C12.7668 6.97636 13.1507 7.25532 13.5839 7.25532H17.4084C18.3771 7.25532 18.7799 8.49494 17.9962 9.06434L14.9021 11.3123C14.5516 11.5669 14.405 12.0183 14.5389 12.4303L15.7207 16.0676C16.02 16.9889 14.9656 17.7551 14.1818 17.1857L11.0878 14.9377C10.7373 14.6831 10.2627 14.6831 9.91222 14.9377L6.81815 17.1857C6.03444 17.7551 4.97996 16.9889 5.27931 16.0676L6.46114 12.4303C6.59501 12.0183 6.44835 11.5669 6.09787 11.3123L3.00381 9.06434C2.22009 8.49494 2.62287 7.25532 3.59159 7.25532H7.41606C7.84929 7.25532 8.23324 6.97636 8.36712 6.56434L9.54894 2.92705Z" fill="#F9D75A"/>
<path d="M30.5489 2.92705C30.8483 2.00574 32.1517 2.00574 32.4511 2.92705L33.6329 6.56434C33.7668 6.97636 34.1507 7.25532 34.5839 7.25532H38.4084C39.3771 7.25532 39.7799 8.49494 38.9962 9.06434L35.9021 11.3123C35.5516 11.5669 35.405 12.0183 35.5389 12.4303L36.7207 16.0676C37.02 16.9889 35.9656 17.7551 35.1818 17.1857L32.0878 14.9377C31.7373 14.6831 31.2627 14.6831 30.9122 14.9377L27.8182 17.1857C27.0344 17.7551 25.98 16.9889 26.2793 16.0676L27.4611 12.4303C27.595 12.0183 27.4484 11.5669 27.0979 11.3123L24.0038 9.06434C23.2201 8.49494 23.6229 7.25532 24.5916 7.25532H28.4161C28.8493 7.25532 29.2332 6.97636 29.3671 6.56434L30.5489 2.92705Z" fill="#F9D75A"/>
<path d="M51.5489 2.92705C51.8483 2.00574 53.1517 2.00574 53.4511 2.92705L54.6329 6.56434C54.7668 6.97636 55.1507 7.25532 55.5839 7.25532H59.4084C60.3771 7.25532 60.7799 8.49494 59.9962 9.06434L56.9021 11.3123C56.5516 11.5669 56.405 12.0183 56.5389 12.4303L57.7207 16.0676C58.02 16.9889 56.9656 17.7551 56.1818 17.1857L53.0878 14.9377C52.7373 14.6831 52.2627 14.6831 51.9122 14.9377L48.8182 17.1857C48.0344 17.7551 46.98 16.9889 47.2793 16.0676L48.4611 12.4303C48.595 12.0183 48.4484 11.5669 48.0979 11.3123L45.0038 9.06434C44.2201 8.49494 44.6229 7.25532 45.5916 7.25532H49.4161C49.8493 7.25532 50.2332 6.97636 50.3671 6.56434L51.5489 2.92705Z" fill="#F9D75A"/>
<path d="M72.5489 2.92705C72.8483 2.00574 74.1517 2.00574 74.4511 2.92705L75.6329 6.56434C75.7668 6.97636 76.1507 7.25532 76.5839 7.25532H80.4084C81.3771 7.25532 81.7799 8.49494 80.9962 9.06434L77.9021 11.3123C77.5516 11.5669 77.405 12.0183 77.5389 12.4303L78.7207 16.0676C79.02 16.9889 77.9656 17.7551 77.1818 17.1857L74.0878 14.9377C73.7373 14.6831 73.2627 14.6831 72.9122 14.9377L69.8182 17.1857C69.0344 17.7551 67.98 16.9889 68.2793 16.0676L69.4611 12.4303C69.595 12.0183 69.4484 11.5669 69.0979 11.3123L66.0038 9.06434C65.2201 8.49494 65.6229 7.25532 66.5916 7.25532H70.4161C70.8493 7.25532 71.2332 6.97636 71.3671 6.56434L72.5489 2.92705Z" fill="#F9D75A"/>
<path d="M93.5489 2.92705C93.8483 2.00574 95.1517 2.00574 95.4511 2.92705L96.6329 6.56434C96.7668 6.97636 97.1507 7.25532 97.5839 7.25532H101.408C102.377 7.25532 102.78 8.49494 101.996 9.06434L98.9021 11.3123C98.5516 11.5669 98.405 12.0183 98.5389 12.4303L99.7207 16.0676C100.02 16.9889 98.9656 17.7551 98.1818 17.1857L95.0878 14.9377C94.7373 14.6831 94.2627 14.6831 93.9122 14.9377L90.8182 17.1857C90.0344 17.7551 88.98 16.9889 89.2793 16.0676L90.4611 12.4303C90.595 12.0183 90.4484 11.5669 90.0979 11.3123L87.0038 9.06434C86.2201 8.49494 86.6229 7.25532 87.5916 7.25532H91.4161C91.8493 7.25532 92.2332 6.97636 92.3671 6.56434L93.5489 2.92705Z" fill="#F9D75A"/>
</svg>
