<svg width="105" height="107" viewBox="0 0 105 107" fill="none" xmlns="http://www.w3.org/2000/svg">
<g clip-path="url(#clip0_6020_5976)">
<path d="M70.5776 47.0941C69.0073 47.121 67.48 47.6114 66.1876 48.5038C64.8952 49.3961 63.8955 50.6506 63.3139 52.1095C62.7324 53.5684 62.5951 55.1666 62.9192 56.7033C63.2433 58.24 64.0144 59.6466 65.1356 60.7464C66.2568 61.8461 67.6781 62.5899 69.2207 62.8843C70.7634 63.1787 72.3587 63.0105 73.8061 62.4009C75.2535 61.7913 76.4884 60.7675 77.3556 59.4582C78.2228 58.1488 78.6837 56.6123 78.6803 55.0418C78.6896 50.5255 75.1559 47.0693 70.5776 47.0941ZM70.7202 59.0807C70.1728 59.0958 69.6279 59.001 69.1177 58.8019C68.6076 58.6028 68.1425 58.3035 67.75 57.9216C67.3575 57.5398 67.0455 57.0831 66.8324 56.5786C66.6194 56.0741 66.5096 55.5321 66.5096 54.9844C66.5096 54.4368 66.6194 53.8948 66.8324 53.3903C67.0455 52.8858 67.3575 52.4291 67.75 52.0473C68.1425 51.6654 68.6076 51.3661 69.1177 51.167C69.6279 50.9679 70.1728 50.8731 70.7202 50.8882C71.2579 50.894 71.789 51.0074 72.2823 51.2218C72.7755 51.4361 73.2208 51.747 73.592 52.1361C73.9632 52.5252 74.2528 52.9847 74.4436 53.4874C74.6345 53.9902 74.7228 54.5261 74.7033 55.0635C74.7095 55.5899 74.6109 56.1122 74.4134 56.6002C74.2158 57.0881 73.9232 57.5319 73.5525 57.9058C73.1819 58.2796 72.7406 58.576 72.2543 58.7777C71.7681 58.9794 71.2466 59.0824 70.7202 59.0807ZM70.5776 47.0941C69.0073 47.121 67.48 47.6114 66.1876 48.5038C64.8952 49.3961 63.8955 50.6506 63.3139 52.1095C62.7324 53.5684 62.5951 55.1666 62.9192 56.7033C63.2433 58.24 64.0144 59.6466 65.1356 60.7464C66.2568 61.8461 67.6781 62.5899 69.2207 62.8843C70.7634 63.1787 72.3587 63.0105 73.8061 62.4009C75.2535 61.7913 76.4884 60.7675 77.3556 59.4582C78.2228 58.1488 78.6837 56.6123 78.6803 55.0418C78.6896 50.5255 75.1559 47.0693 70.5776 47.0941ZM70.7202 59.0807C70.1728 59.0958 69.6279 59.001 69.1177 58.8019C68.6076 58.6028 68.1425 58.3035 67.75 57.9216C67.3575 57.5398 67.0455 57.0831 66.8324 56.5786C66.6194 56.0741 66.5096 55.5321 66.5096 54.9844C66.5096 54.4368 66.6194 53.8948 66.8324 53.3903C67.0455 52.8858 67.3575 52.4291 67.75 52.0473C68.1425 51.6654 68.6076 51.3661 69.1177 51.167C69.6279 50.9679 70.1728 50.8731 70.7202 50.8882C71.2579 50.894 71.789 51.0074 72.2823 51.2218C72.7755 51.4361 73.2208 51.747 73.592 52.1361C73.9632 52.5252 74.2528 52.9847 74.4436 53.4874C74.6345 53.9902 74.7228 54.5261 74.7033 55.0635C74.7095 55.5899 74.6109 56.1122 74.4134 56.6002C74.2158 57.0881 73.9232 57.5319 73.5525 57.9058C73.1819 58.2796 72.7406 58.576 72.2543 58.7777C71.7681 58.9794 71.2466 59.0824 70.7202 59.0807ZM104.975 43.0459C104.975 41.6448 104.163 40.8761 102.703 40.8761C101.891 40.8761 101.082 40.8761 100.109 40.8761V39.0162C100.109 34.3666 100.109 29.7171 100.109 25.0675C100.109 22.7489 99.6282 22.2467 97.2848 22.2064C95.3227 22.1723 93.3574 22.2064 91.3953 22.2064C89.4332 22.2064 87.53 22.2064 85.5244 22.2064C85.5244 18.4124 85.5244 14.9562 85.5244 11.5C85.5244 9.36118 84.9045 8.78773 82.7347 8.77223C81.4173 8.77223 80.0999 8.77223 78.8476 8.77223C78.7899 8.60129 78.7453 8.42615 78.7144 8.24838C78.7144 6.44124 78.6989 4.6341 78.6896 2.82696C78.6896 0.210799 77.741 -0.499038 75.19 0.241796C67.8746 2.3744 60.581 4.58141 53.2408 6.64582C50.1411 7.51374 47.1685 8.84663 43.8022 8.81563C35.0734 8.70714 26.3414 8.78153 17.6126 8.79083C15.1607 8.79083 14.5129 9.45417 14.5129 11.9432C14.5129 14.1131 14.5129 16.2674 14.5129 18.4527L2.42398 22.0762C0.235579 22.7458 0 23.0651 0 25.3464V78.95H3.99244V26.2547H96.1348V40.9133H94.2316C83.3825 40.9133 72.5335 40.9381 61.6845 40.8699C59.93 40.8699 59.0621 41.5363 58.5476 43.1482C57.3449 46.9267 55.9624 50.6464 54.8279 54.4404C54.5275 55.5048 54.5501 56.6344 54.893 57.6859C56.0089 60.8445 57.3976 63.9039 58.5693 67.0408C59.1458 68.5907 60.0664 69.1393 61.7124 69.1331C72.611 69.0773 83.5127 69.1083 94.4113 69.1114H96.2712V78.9778H100.109V68.975C101.166 68.975 102.08 68.975 102.994 68.975C104.321 68.944 104.991 68.1939 104.994 66.9168C105.006 58.9588 105 51.0018 104.975 43.0459ZM74.663 4.58451V8.72574H60.7856L60.7577 8.53665L74.663 4.58451ZM81.718 22.0886H18.3845C18.5518 18.9641 18.7265 15.8375 18.9083 12.7089H33.4336L81.4483 12.7337C81.5444 13.6853 81.7025 14.6338 81.7211 15.5854C81.7459 17.7056 81.718 19.8196 81.718 22.0886ZM100.936 65.0384H61.9511C60.8011 62.165 59.5984 59.1675 58.4205 56.1639C58.354 55.9245 58.367 55.6699 58.4577 55.4386C59.6438 51.8821 60.8403 48.3278 62.0471 44.7755H100.949L100.936 65.0384ZM70.7202 63.0236C72.8296 63.0097 74.8483 62.1632 76.3367 60.6684C77.8252 59.1735 78.663 57.1513 78.6679 55.0418C78.6679 50.5348 75.1435 47.0693 70.5652 47.0941C68.4768 47.1503 66.4941 48.0245 65.0442 49.5286C63.5942 51.0326 62.7931 53.046 62.8135 55.135C62.8338 57.224 63.6739 59.2215 65.1528 60.697C66.6318 62.1725 68.6311 63.0081 70.7202 63.0236ZM70.7016 50.8882C71.2409 50.8915 71.774 51.0032 72.2694 51.2164C72.7648 51.4296 73.2123 51.7401 73.5855 52.1295C73.9587 52.5188 74.2499 52.9791 74.4419 53.4831C74.6339 53.9871 74.7228 54.5245 74.7033 55.0635C74.7112 55.5914 74.6136 56.1156 74.4164 56.6054C74.2192 57.0952 73.9263 57.5408 73.5548 57.916C73.1833 58.2913 72.7408 58.5886 72.253 58.7907C71.7652 58.9929 71.242 59.0957 70.714 59.0931C70.1666 59.1082 69.6217 59.0134 69.1115 58.8143C68.6014 58.6152 68.1363 58.3159 67.7438 57.934C67.3513 57.5522 67.0393 57.0955 66.8262 56.591C66.6132 56.0865 66.5034 55.5445 66.5034 54.9968C66.5034 54.4492 66.6132 53.9072 66.8262 53.4027C67.0393 52.8982 67.3513 52.4415 67.7438 52.0597C68.1363 51.6778 68.6014 51.3785 69.1115 51.1794C69.6217 50.9803 70.1666 50.8855 70.714 50.9006L70.7016 50.8882ZM70.5652 47.0941C68.9949 47.121 67.4676 47.6114 66.1752 48.5038C64.8829 49.3961 63.8831 50.6506 63.3015 52.1095C62.72 53.5684 62.5827 55.1666 62.9068 56.7033C63.2309 58.24 64.002 59.6466 65.1232 60.7464C66.2444 61.8461 67.6657 62.5899 69.2084 62.8843C70.751 63.1787 72.3463 63.0105 73.7937 62.4009C75.2411 61.7913 76.476 60.7675 77.3432 59.4582C78.2104 58.1488 78.6713 56.6123 78.6679 55.0418C78.6896 50.5255 75.1559 47.0693 70.5776 47.0941H70.5652ZM70.7078 59.0807C70.1604 59.0958 69.6155 59.001 69.1053 58.8019C68.5952 58.6028 68.1301 58.3035 67.7376 57.9216C67.3451 57.5398 67.0331 57.0831 66.82 56.5786C66.607 56.0741 66.4972 55.5321 66.4972 54.9844C66.4972 54.4368 66.607 53.8948 66.82 53.3903C67.0331 52.8858 67.3451 52.4291 67.7376 52.0473C68.1301 51.6654 68.5952 51.3661 69.1053 51.167C69.6155 50.9679 70.1604 50.8731 70.7078 50.8882C71.2466 50.8924 71.779 51.0046 72.2737 51.2182C72.7684 51.4318 73.2152 51.7424 73.5877 52.1317C73.9602 52.5209 74.2509 52.981 74.4425 53.4846C74.6341 53.9881 74.7228 54.525 74.7033 55.0635C74.7095 55.5899 74.6109 56.1122 74.4134 56.6002C74.2158 57.0881 73.9232 57.5319 73.5525 57.9058C73.1819 58.2796 72.7406 58.576 72.2543 58.7777C71.7681 58.9794 71.2466 59.0824 70.7202 59.0807H70.7078ZM70.5652 47.0941C68.9949 47.121 67.4676 47.6114 66.1752 48.5038C64.8829 49.3961 63.8831 50.6506 63.3015 52.1095C62.72 53.5684 62.5827 55.1666 62.9068 56.7033C63.2309 58.24 64.002 59.6466 65.1232 60.7464C66.2444 61.8461 67.6657 62.5899 69.2084 62.8843C70.751 63.1787 72.3463 63.0105 73.7937 62.4009C75.2411 61.7913 76.476 60.7675 77.3432 59.4582C78.2104 58.1488 78.6713 56.6123 78.6679 55.0418C78.6896 50.5255 75.1559 47.0693 70.5776 47.0941H70.5652ZM70.7078 59.0807C70.1604 59.0958 69.6155 59.001 69.1053 58.8019C68.5952 58.6028 68.1301 58.3035 67.7376 57.9216C67.3451 57.5398 67.0331 57.0831 66.82 56.5786C66.607 56.0741 66.4972 55.5321 66.4972 54.9844C66.4972 54.4368 66.607 53.8948 66.82 53.3903C67.0331 52.8858 67.3451 52.4291 67.7376 52.0473C68.1301 51.6654 68.5952 51.3661 69.1053 51.167C69.6155 50.9679 70.1604 50.8731 70.7078 50.8882C71.2466 50.8924 71.779 51.0046 72.2737 51.2182C72.7684 51.4318 73.2152 51.7424 73.5877 52.1317C73.9602 52.5209 74.2509 52.981 74.4425 53.4846C74.6341 53.9881 74.7228 54.525 74.7033 55.0635C74.7095 55.5899 74.6109 56.1122 74.4134 56.6002C74.2158 57.0881 73.9232 57.5319 73.5525 57.9058C73.1819 58.2796 72.7406 58.576 72.2543 58.7777C71.7681 58.9794 71.2466 59.0824 70.7202 59.0807H70.7078Z" fill="#3A6FB5"/>
<path d="M70.5777 47.0944C69.0074 47.1213 67.4801 47.6117 66.1877 48.5041C64.8953 49.3964 63.8956 50.6509 63.314 52.1098C62.7325 53.5687 62.5952 55.1669 62.9193 56.7036C63.2434 58.2403 64.0145 59.6469 65.1357 60.7467C66.2569 61.8464 67.6782 62.5902 69.2208 62.8846C70.7635 63.179 72.3588 63.0108 73.8062 62.4012C75.2536 61.7916 76.4885 60.7678 77.3557 59.4585C78.2229 58.1491 78.6838 56.6126 78.6804 55.0421C78.6897 50.5258 75.156 47.0696 70.5777 47.0944ZM70.7203 59.081C70.1729 59.0961 69.628 59.0013 69.1178 58.8022C68.6077 58.6031 68.1426 58.3038 67.7501 57.9219C67.3576 57.5401 67.0456 57.0834 66.8325 56.5789C66.6195 56.0744 66.5097 55.5324 66.5097 54.9847C66.5097 54.4371 66.6195 53.8951 66.8325 53.3906C67.0456 52.8861 67.3576 52.4294 67.7501 52.0476C68.1426 51.6657 68.6077 51.3664 69.1178 51.1673C69.628 50.9682 70.1729 50.8734 70.7203 50.8885C71.258 50.8943 71.7891 51.0077 72.2824 51.2221C72.7756 51.4364 73.2209 51.7473 73.5921 52.1364C73.9633 52.5255 74.2529 52.985 74.4437 53.4877C74.6346 53.9905 74.7229 54.5264 74.7034 55.0638C74.7096 55.5902 74.611 56.1125 74.4135 56.6005C74.2159 57.0884 73.9233 57.5322 73.5526 57.9061C73.182 58.2799 72.7407 58.5763 72.2544 58.778C71.7682 58.9797 71.2467 59.0827 70.7203 59.081Z" fill="#3A6FB5"/>
<path d="M81.4327 12.7401L33.418 12.7091H18.9082C23.7066 12.4673 28.5173 12.6626 33.3126 12.6006H33.4583C48.8949 12.6006 64.3315 12.6006 79.7682 12.6006C80.1184 12.6006 80.4749 12.551 80.8252 12.5758C81.0358 12.594 81.2416 12.6496 81.4327 12.7401Z" fill="#3A6FB5"/>
<path d="M81.4328 12.7402L33.4181 12.7092C33.3468 12.6751 33.3065 12.641 33.2972 12.6038C33.292 12.5949 33.2893 12.5847 33.2893 12.5744C33.2893 12.564 33.292 12.5539 33.2972 12.5449C33.3344 12.4891 33.3716 12.4612 33.4088 12.4612C48.926 12.4612 64.4442 12.4612 79.9635 12.4612C80.2468 12.4697 80.528 12.5134 80.8005 12.5914C81.0205 12.6441 81.2127 12.7092 81.4328 12.7402Z" fill="#3A6FB5"/>
<path d="M33.418 12.4674V12.7091H18.9082C19.336 12.5808 19.775 12.4936 20.2194 12.4488C24.6086 12.4457 29.0133 12.4612 33.418 12.4674Z" fill="#3A6FB5"/>
<path d="M70.5777 47.0944C69.0074 47.1213 67.4801 47.6117 66.1877 48.5041C64.8953 49.3964 63.8956 50.6509 63.314 52.1098C62.7325 53.5687 62.5952 55.1669 62.9193 56.7036C63.2434 58.2403 64.0145 59.6469 65.1357 60.7467C66.2569 61.8464 67.6782 62.5902 69.2208 62.8846C70.7635 63.179 72.3588 63.0108 73.8062 62.4012C75.2536 61.7916 76.4885 60.7678 77.3557 59.4585C78.2229 58.1491 78.6838 56.6126 78.6804 55.0421C78.6897 50.5258 75.156 47.0696 70.5777 47.0944ZM70.7203 59.081C70.1729 59.0961 69.628 59.0013 69.1178 58.8022C68.6077 58.6031 68.1426 58.3038 67.7501 57.9219C67.3576 57.5401 67.0456 57.0834 66.8325 56.5789C66.6195 56.0744 66.5097 55.5324 66.5097 54.9847C66.5097 54.4371 66.6195 53.8951 66.8325 53.3906C67.0456 52.8861 67.3576 52.4294 67.7501 52.0476C68.1426 51.6657 68.6077 51.3664 69.1178 51.1673C69.628 50.9682 70.1729 50.8734 70.7203 50.8885C71.258 50.8943 71.7891 51.0077 72.2824 51.2221C72.7756 51.4364 73.2209 51.7473 73.5921 52.1364C73.9633 52.5255 74.2529 52.985 74.4437 53.4877C74.6346 53.9905 74.7229 54.5264 74.7034 55.0638C74.7096 55.5902 74.611 56.1125 74.4135 56.6005C74.2159 57.0884 73.9233 57.5322 73.5526 57.9061C73.182 58.2799 72.7407 58.5763 72.2544 58.778C71.7682 58.9797 71.2467 59.0827 70.7203 59.081Z" fill="#3A6FB5"/>
<path d="M69.6383 105.344H35.4422C35.0998 105.344 34.8223 105.622 34.8223 105.964C34.8223 106.307 35.0998 106.584 35.4422 106.584H69.6383C69.9807 106.584 70.2583 106.307 70.2583 105.964C70.2583 105.622 69.9807 105.344 69.6383 105.344Z" fill="#3A6FB5"/>
<path d="M11.3141 92.7719C11.7408 93.0458 12.0992 93.4138 12.3618 93.8475C12.5994 94.2572 12.7246 94.7223 12.7246 95.1959C12.7246 95.6695 12.5994 96.1346 12.3618 96.5443C12.0992 96.9781 11.7408 97.346 11.3141 97.6199C10.9354 97.8763 10.5163 98.067 10.0742 98.184C9.12402 98.4399 8.12307 98.4399 7.17288 98.184C6.7318 98.0642 6.31307 97.8737 5.93299 97.6199C5.68544 97.4591 5.4594 97.2675 5.26035 97.0495L5.03407 96.7799L5.7749 94.5109L6.39485 95.1122C6.46739 95.187 6.5462 95.2555 6.63042 95.3168L6.9404 95.54L7.03959 95.5958C7.25491 95.7402 7.49422 95.8452 7.74632 95.9057C8.31378 96.0587 8.91161 96.0587 9.47907 95.9057C9.73186 95.8415 9.97261 95.7368 10.192 95.5958C10.2612 95.553 10.3184 95.4932 10.358 95.4222C10.3976 95.3511 10.4184 95.2711 10.4184 95.1897C10.4184 95.1083 10.3976 95.0283 10.358 94.9573C10.3184 94.8862 10.2612 94.8264 10.192 94.7836C9.97333 94.6412 9.73235 94.5365 9.47907 94.4737C9.19448 94.4008 8.90181 94.3644 8.60805 94.3652C8.11898 94.368 7.63186 94.3033 7.16048 94.173C6.72003 94.053 6.3015 93.8636 5.92059 93.612C5.49331 93.3394 5.13645 92.9698 4.87908 92.5332C4.64536 92.1229 4.52246 91.6587 4.52246 91.1864C4.52246 90.7141 4.64536 90.25 4.87908 89.8396C5.1356 89.4024 5.49263 89.0326 5.92059 88.7609C6.30136 88.5083 6.71988 88.3179 7.16048 88.1967C8.11067 87.9409 9.11162 87.9409 10.0618 88.1967C10.5034 88.3151 10.9224 88.5057 11.3017 88.7609C11.4261 88.8409 11.5451 88.929 11.6582 89.0244C11.7605 89.1174 11.8659 89.2135 11.9681 89.3343L12.1975 89.5885L11.4691 91.9164L10.8274 91.2593C10.7531 91.1849 10.688 91.126 10.6353 91.0826C10.551 91.0176 10.463 90.9575 10.3718 90.9028C10.3482 90.8813 10.3222 90.8626 10.2943 90.847L10.1858 90.7881C9.97188 90.6473 9.73626 90.5426 9.48837 90.4781C8.92091 90.3252 8.32308 90.3252 7.75562 90.4781C7.50444 90.5414 7.26558 90.6462 7.04889 90.7881C6.97898 90.8307 6.9212 90.8906 6.88111 90.962C6.84102 91.0334 6.81997 91.1138 6.81997 91.1957C6.81997 91.2776 6.84102 91.3581 6.88111 91.4295C6.9212 91.5009 6.97898 91.5607 7.04889 91.6033C7.26349 91.7491 7.50304 91.8542 7.75562 91.9133C8.03732 91.9844 8.32683 92.0198 8.61735 92.0187C9.10836 92.0174 9.59732 92.082 10.0711 92.2109C10.5136 92.328 10.9336 92.5176 11.3141 92.7719Z" fill="#F09135"/>
<path d="M26.3726 98.2615H23.9486L23.5797 97.251C23.5738 97.2215 23.5573 97.1951 23.5333 97.1769C23.5094 97.1586 23.4796 97.1497 23.4496 97.1518H19.144C19.1145 97.152 19.0859 97.1618 19.0624 97.1797C19.0389 97.1976 19.0219 97.2226 19.0138 97.251L18.6574 98.2615H16.2334L19.8384 88.2649H22.7924L26.3726 98.2615ZM19.9407 94.6844C19.9292 94.7036 19.9231 94.7256 19.9231 94.748C19.9231 94.7703 19.9292 94.7923 19.9407 94.8115C19.9536 94.8297 19.9709 94.8443 19.9909 94.854C20.0109 94.8638 20.0331 94.8683 20.0554 94.8673H22.5351C22.656 94.8673 22.6994 94.8053 22.6622 94.6844L21.4223 91.2747C21.4124 91.2451 21.3931 91.2194 21.3674 91.2016C21.3418 91.1837 21.311 91.1746 21.2797 91.1755C21.2502 91.1742 21.2212 91.1835 21.1979 91.2017C21.1746 91.2198 21.1585 91.2458 21.1527 91.2747L19.9407 94.6844Z" fill="#F09135"/>
<path d="M32.6619 90.6176C32.5689 90.6176 32.5193 90.6703 32.5193 90.7756V93.057C32.5193 93.1624 32.5689 93.2151 32.6619 93.2151H37.1689V95.4717H32.6619C32.6426 95.4692 32.6229 95.4711 32.6045 95.4774C32.586 95.4836 32.5692 95.4941 32.5555 95.5079C32.5417 95.5216 32.5312 95.5384 32.525 95.5569C32.5187 95.5753 32.5168 95.595 32.5193 95.6143V98.2615H30.2534V88.3238H38.3375V90.6176H32.6619Z" fill="#F09135"/>
<path d="M44.6578 90.5773C44.6424 90.5747 44.6267 90.5758 44.6118 90.5804C44.5969 90.5851 44.5833 90.5931 44.5722 90.604C44.561 90.6149 44.5526 90.6282 44.5475 90.643C44.5425 90.6577 44.541 90.6734 44.5431 90.6889V92.5859C44.5431 92.6727 44.5803 92.7161 44.6578 92.7161H49.3074V94.982H44.6578C44.5803 94.982 44.5431 95.0254 44.5431 95.1122V95.853C44.5411 95.8686 44.5426 95.8844 44.5477 95.8992C44.5527 95.914 44.5611 95.9275 44.5722 95.9386C44.5833 95.9497 44.5968 95.9581 44.6116 95.9631C44.6265 95.9682 44.6423 95.9697 44.6578 95.9677H50.3892V98.2615H42.2617V88.2649H50.3892V90.5773H44.6578Z" fill="#F09135"/>
<path d="M61.2567 92.7719C61.6834 93.0458 62.0418 93.4138 62.3044 93.8476C62.5438 94.2566 62.67 94.722 62.67 95.1959C62.67 95.6699 62.5438 96.1353 62.3044 96.5443C62.0418 96.9781 61.6834 97.346 61.2567 97.6199C60.8778 97.876 60.4587 98.0667 60.0168 98.1841C59.5432 98.3142 59.0541 98.3789 58.563 98.3762C58.0729 98.3793 57.5847 98.3146 57.1123 98.1841C56.6717 98.0631 56.2531 97.8727 55.8724 97.6199C55.6253 97.4599 55.4002 97.2682 55.2029 97.0496L54.9735 96.7799L55.7144 94.5109L56.3343 95.1122C56.4061 95.1878 56.485 95.2563 56.5699 95.3168L56.8799 95.54L56.979 95.5958C57.195 95.7391 57.4341 95.844 57.6858 95.9058C57.9675 95.9829 58.2585 96.0215 58.5506 96.0205C58.8438 96.0223 59.1359 95.9837 59.4185 95.9058C59.6715 95.8421 59.9124 95.7374 60.1315 95.5958C60.2014 95.5536 60.2593 95.494 60.2994 95.4229C60.3396 95.3517 60.3607 95.2714 60.3607 95.1897C60.3607 95.108 60.3396 95.0277 60.2994 94.9566C60.2593 94.8854 60.2014 94.8259 60.1315 94.7837C59.9131 94.6407 59.672 94.5359 59.4185 94.4737C59.135 94.4009 58.8433 94.3644 58.5506 94.3652C58.0605 94.3682 57.5723 94.3036 57.0999 94.173C56.6599 94.0518 56.2416 93.8625 55.86 93.612C55.4342 93.3377 55.0777 92.9685 54.8185 92.5333C54.5848 92.1229 54.4619 91.6587 54.4619 91.1864C54.4619 90.7142 54.5848 90.25 54.8185 89.8396C55.0768 89.4037 55.4335 89.0343 55.86 88.7609C56.2414 88.5094 56.6598 88.319 57.0999 88.1968C57.5726 88.0677 58.0606 88.003 58.5506 88.0046C59.0416 88.0035 59.5305 88.0681 60.0044 88.1968C60.4459 88.3154 60.8648 88.506 61.2443 88.7609C61.3686 88.841 61.4877 88.929 61.6007 89.0244C61.7061 89.1174 61.8115 89.2135 61.9107 89.3344L62.1401 89.5885L61.3992 91.9288L60.7576 91.2717C60.6801 91.1973 60.615 91.1384 60.5654 91.095C60.48 91.0301 60.391 90.9701 60.2988 90.9152C60.2758 90.893 60.2497 90.8742 60.2214 90.8594L60.116 90.8005C59.9006 90.6602 59.6641 90.5556 59.4154 90.4905C59.1325 90.4141 58.8406 90.3755 58.5475 90.3759C58.2555 90.3763 57.9647 90.4149 57.6827 90.4905C57.4319 90.5551 57.1932 90.6597 56.9759 90.8005C56.9068 90.8437 56.8497 90.9038 56.8101 90.9751C56.7706 91.0464 56.7498 91.1266 56.7498 91.2081C56.7498 91.2897 56.7706 91.3699 56.8101 91.4412C56.8497 91.5125 56.9068 91.5726 56.9759 91.6157C57.1911 91.7605 57.4305 91.8655 57.6827 91.9257C57.9654 91.9968 58.256 92.0322 58.5475 92.0311C59.0385 92.03 59.5274 92.0947 60.0013 92.2233C60.4472 92.3355 60.8714 92.5209 61.2567 92.7719Z" fill="#3A6FB5"/>
<path d="M76.3183 98.2615H73.8943L73.5224 97.251C73.5171 97.2217 73.5012 97.1954 73.4778 97.1771C73.4543 97.1588 73.425 97.1498 73.3953 97.1518H69.0867C69.0576 97.1522 69.0294 97.1621 69.0064 97.18C68.9835 97.1979 68.967 97.2228 68.9596 97.251L68.6031 98.2615H66.176L69.7717 88.2649H72.7226L76.3183 98.2615ZM69.8864 94.6844C69.8749 94.7036 69.8689 94.7256 69.8689 94.748C69.8689 94.7703 69.8749 94.7923 69.8864 94.8115C69.8997 94.8293 69.917 94.8436 69.937 94.8533C69.9569 94.863 69.9789 94.8678 70.0011 94.8673H72.4809C72.6048 94.8673 72.6482 94.8053 72.6079 94.6844L71.3681 91.2747C71.3577 91.2453 71.3383 91.22 71.3127 91.2022C71.2872 91.1844 71.2566 91.1751 71.2255 91.1755C71.1954 91.1734 71.1656 91.1823 71.1417 91.2006C71.1177 91.2188 71.1012 91.2452 71.0953 91.2747L69.8864 94.6844Z" fill="#3A6FB5"/>
<path d="M87.3564 88.2649L83.7328 98.2615H81.7366L78.113 88.2649H80.5525L82.62 94.0118C82.6304 94.0334 82.6466 94.0517 82.6669 94.0645C82.6872 94.0773 82.7107 94.0841 82.7347 94.0841C82.7587 94.0841 82.7822 94.0773 82.8025 94.0645C82.8228 94.0517 82.8391 94.0334 82.8494 94.0118L84.9324 88.2649H87.3564Z" fill="#3A6FB5"/>
<path d="M93.5743 90.5773C93.5589 90.5747 93.5432 90.5758 93.5283 90.5804C93.5134 90.5851 93.4999 90.5931 93.4887 90.604C93.4775 90.6149 93.4691 90.6282 93.464 90.643C93.459 90.6577 93.4575 90.6734 93.4596 90.6889V92.5859C93.4596 92.6727 93.4968 92.7161 93.5743 92.7161H98.2084V94.982H93.5743C93.4968 94.982 93.4596 95.0254 93.4596 95.1122V95.853C93.4576 95.8686 93.4592 95.8844 93.4642 95.8992C93.4692 95.914 93.4776 95.9275 93.4887 95.9386C93.4998 95.9497 93.5133 95.9581 93.5281 95.9631C93.543 95.9682 93.5588 95.9697 93.5743 95.9677H99.3057V98.2615H91.1782V88.2649H99.3057V90.5773H93.5743Z" fill="#3A6FB5"/>
<path d="M70.6458 59.6731C73.2342 59.6731 75.3325 57.5747 75.3325 54.9863C75.3325 52.3978 73.2342 50.2995 70.6458 50.2995C68.0573 50.2995 65.959 52.3978 65.959 54.9863C65.959 57.5747 68.0573 59.6731 70.6458 59.6731Z" fill="#F09135"/>
</g>
<defs>
<clipPath id="clip0_6020_5976">
<rect width="105" height="106.584" fill="white"/>
</clipPath>
</defs>
</svg>
